<svg width="24" height="24" viewBox="0 0 24 24" fill="none" xmlns="http://www.w3.org/2000/svg">
<path d="M14 4.00024L16 6.00524L8.849 5.98424C5.632 5.98424 3 8.62324 3 11.8482C3 13.4612 3.658 14.9272 4.718 15.9892" stroke="white" stroke-width="2" stroke-linecap="round" stroke-linejoin="round"/>
<path d="M10 20.0002L8 17.9952L15.151 18.0162C18.368 18.0162 21 15.3772 21 12.1522C21 10.5392 20.342 9.07323 19.282 8.01123" stroke="white" stroke-width="2" stroke-linecap="round" stroke-linejoin="round"/>
<path d="M11.972 8.01C12.072 7.93667 12.1853 7.9 12.312 7.9C12.4253 7.9 12.5186 7.93667 12.592 8.01C12.672 8.08333 12.712 8.18667 12.712 8.32V14.63C12.712 14.7633 12.672 14.8667 12.592 14.94C12.5186 15.0133 12.422 15.05 12.302 15.05C12.1753 15.05 12.0753 15.0133 12.002 14.94C11.9286 14.8667 11.892 14.7633 11.892 14.63V8.95L10.802 9.66C10.7353 9.69333 10.6786 9.71 10.632 9.71C10.5386 9.71 10.4553 9.66667 10.382 9.58C10.3153 9.49333 10.282 9.4 10.282 9.3C10.282 9.17333 10.3386 9.07333 10.452 9L11.972 8.01Z" fill="white"/>
<path d="M11.972 8.01L12.1086 8.21981L12.1198 8.2116L11.972 8.01ZM12.592 8.01L12.415 8.18694L12.423 8.19429L12.592 8.01ZM12.592 14.94L12.4229 14.7555L12.4152 14.7632L12.592 14.94ZM12.002 14.94L11.8252 15.1168L12.002 14.94ZM11.892 8.95H12.142V8.4888L11.7555 8.74052L11.892 8.95ZM10.802 9.66L10.9138 9.88361L10.9265 9.87724L10.9384 9.86948L10.802 9.66ZM10.382 9.58L10.1836 9.73259L10.1911 9.74148L10.382 9.58ZM10.452 9L10.5878 9.20989L10.5884 9.20948L10.452 9ZM12.1198 8.2116C12.1759 8.17043 12.2372 8.15 12.312 8.15V7.65C12.1333 7.65 11.968 7.7029 11.8241 7.8084L12.1198 8.2116ZM12.312 8.15C12.3658 8.15 12.3933 8.16491 12.4152 8.18678L12.7687 7.83322C12.6439 7.70842 12.4848 7.65 12.312 7.65V8.15ZM12.423 8.19429C12.4399 8.20975 12.462 8.23949 12.462 8.32H12.962C12.962 8.13385 12.904 7.95692 12.7609 7.82571L12.423 8.19429ZM12.462 8.32V14.63H12.962V8.32H12.462ZM12.462 14.63C12.462 14.7105 12.4399 14.7403 12.423 14.7557L12.7609 15.1243C12.904 14.9931 12.962 14.8162 12.962 14.63H12.462ZM12.4152 14.7632C12.3961 14.7823 12.3669 14.8 12.302 14.8V15.3C12.477 15.3 12.6411 15.2444 12.7687 15.1168L12.4152 14.7632ZM12.302 14.8C12.226 14.8 12.1952 14.7797 12.1787 14.7632L11.8252 15.1168C11.9554 15.247 12.1246 15.3 12.302 15.3V14.8ZM12.1787 14.7632C12.1646 14.7491 12.142 14.7168 12.142 14.63H11.642C11.642 14.8098 11.6926 14.9842 11.8252 15.1168L12.1787 14.7632ZM12.142 14.63V8.95H11.642V14.63H12.142ZM11.7555 8.74052L10.6655 9.45052L10.9384 9.86948L12.0284 9.15948L11.7555 8.74052ZM10.6901 9.43639C10.6668 9.44807 10.6499 9.45442 10.6389 9.45766C10.6277 9.46095 10.6261 9.46 10.632 9.46V9.96C10.7339 9.96 10.8309 9.92504 10.9138 9.88361L10.6901 9.43639ZM10.632 9.46C10.628 9.46 10.6099 9.46235 10.5728 9.41851L10.1911 9.74148C10.3007 9.87098 10.4493 9.96 10.632 9.96V9.46ZM10.5801 9.42757C10.5437 9.38028 10.532 9.33964 10.532 9.3H10.032C10.032 9.46036 10.0868 9.60639 10.1838 9.73243L10.5801 9.42757ZM10.532 9.3C10.532 9.2646 10.54 9.24078 10.5878 9.20989L10.3161 8.79011C10.1372 8.90589 10.032 9.08207 10.032 9.3H10.532ZM10.5884 9.20948L12.1084 8.21948L11.8355 7.80051L10.3155 8.79051L10.5884 9.20948Z" fill="white"/>
</svg>
